<svg width="64" height="124" viewBox="0 0 64 124" fill="none" xmlns="http://www.w3.org/2000/svg">
<g clip-path="url(#clip0_1_65)">
<path d="M13.316 122.707H18.608C18.608 122.707 12.752 106.239 12.75 106.235C12.092 104.382 10.673 104.097 10.218 104.097H5.10401C5.88901 104.738 6.16001 105.157 6.16001 105.799C6.16001 106.19 6.07301 106.489 5.64701 107.751L0.583008 122.708H4.04101L5.57101 118.069H11.744L13.316 122.707ZM10.767 115.187H6.52201L8.61501 108.837L10.767 115.187Z" fill="black"/>
<path d="M34.7729 120.071V114.134C34.7729 112.998 34.5319 112.417 33.7259 111.699L37.5469 111.7C38.7279 111.7 39.7409 112.657 39.7409 113.865V122.29C37.8739 122.838 35.9799 123.14 34.2519 123.14C27.6349 123.14 23.4419 119.282 23.4419 113.573C23.4419 107.999 27.6439 103.657 34.3419 103.657C35.8669 103.657 37.3139 103.923 38.6269 104.399V108.123C37.4509 107.348 35.9619 106.884 34.3419 106.884C31.1309 106.884 28.6019 109.098 28.6019 113.188C28.6019 117.525 30.5179 120.181 33.5919 120.181C33.9779 120.181 34.3609 120.154 34.7729 120.071Z" fill="black"/>
<path d="M52.993 106.501C52.993 105.173 51.945 104.097 50.653 104.097H46.949C47.755 104.815 47.997 105.397 47.997 106.532V122.708H52.993V114.883H58.675V122.708H63.658V104.152H58.675V111.727H52.993V106.501Z" fill="black"/>
<path d="M45.561 91.69C49.698 88.846 53.316 84.452 53.317 75.146V19.312H57.452V75.146C57.452 85.486 52.283 89.622 45.561 91.69Z" fill="black"/>
<path d="M48.9241 91.69C52.8021 89.88 59.5221 86.52 59.5221 75.146V19.312H63.6581V75.146C63.6581 89.105 52.8021 91.172 48.9241 91.69Z" fill="black"/>
<path d="M42.9761 91.69C46.0631 88.586 47.1121 82.384 47.1121 74.112V19.312H51.2491V75.146C51.2491 84.424 48.1471 89.105 42.9761 91.69Z" fill="black"/>
<path d="M22.8149 0.699951C26.9509 3.54295 30.5689 7.93795 30.5699 17.2439V81.349H34.7059V17.2439C34.7059 6.90395 29.5359 2.76795 22.8149 0.699951Z" fill="black"/>
<path d="M26.178 0.699951C30.055 2.50995 36.776 5.87095 36.776 17.2439V81.349H40.911V17.2439C40.911 3.28595 30.055 1.21695 26.178 0.699951Z" fill="black"/>
<path d="M20.23 0.699951C23.316 3.80195 24.366 10.0059 24.366 18.278V81.35L28.502 81.349V17.2439C28.502 7.96595 25.4 3.28595 20.23 0.699951Z" fill="black"/>
<path d="M19.713 91.69C15.577 88.846 11.96 84.452 11.959 75.146V19.312H7.823V75.146C7.823 85.486 12.992 89.622 19.713 91.69Z" fill="black"/>
<path d="M16.3509 91.69C12.4729 89.88 5.75194 86.52 5.75194 75.146V19.312H1.61694V75.146C1.61694 89.105 12.4729 91.172 16.3509 91.69Z" fill="black"/>
<path d="M22.2981 91.69C19.2121 88.586 18.1621 82.384 18.1621 74.112V19.312H14.0261V75.146C14.0261 84.424 17.1281 89.105 22.2981 91.69Z" fill="black"/>
</g>
<defs>
<clipPath id="clip0_1_65">
<rect width="64" height="124" fill="black"/>
</clipPath>
</defs>
</svg>
